<?xml version="1.0" standalone="no"?>
<!DOCTYPE svg PUBLIC "-//W3C//DTD SVG 20010904//EN"
 "http://www.w3.org/TR/2001/REC-SVG-20010904/DTD/svg10.dtd">
<svg version="1.0" xmlns="http://www.w3.org/2000/svg"
 width="800.000000pt" height="566.000000pt" viewBox="0 0 800.000000 566.000000"
 preserveAspectRatio="xMidYMid meet">

<g transform="translate(0.000000,566.000000) scale(0.100000,-0.100000)"
fill="#000000" stroke="none">
<path d="M3955 5527 c-4 -15 -12 -24 -18 -20 -5 3 -15 -1 -22 -10 -16 -22 -75
-35 -75 -16 0 8 -5 6 -14 -6 -8 -12 -20 -16 -34 -13 -12 3 -23 1 -26 -6 -3 -8
-7 -7 -14 2 -7 11 -11 10 -16 -5 -7 -16 -9 -14 -19 10 -7 16 -17 28 -22 27
-13 -3 -41 -42 -37 -52 1 -5 -2 -8 -8 -8 -5 0 -7 -7 -4 -15 5 -11 -1 -15 -25
-15 -17 0 -31 -5 -31 -11 0 -8 -4 -8 -14 0 -10 9 -16 8 -26 -4 -7 -8 -19 -15
-27 -15 -9 0 -13 -6 -10 -14 8 -20 -3 -27 -24 -15 -11 5 -19 6 -18 2 3 -20 -2
-34 -11 -28 -5 3 -12 -5 -16 -19 -3 -14 -9 -25 -13 -24 -25 3 -31 -3 -21 -22
9 -17 8 -20 -8 -20 -10 0 -24 6 -31 13 -11 10 -11 8 -2 -10 9 -18 9 -23 -1
-23 -6 0 -3 -7 8 -15 15 -12 16 -16 5 -24 -9 -6 -10 -11 -2 -15 11 -7 -2 -48
-25 -76 -12 -15 -50 -120 -62 -170 -3 -14 -6 -86 -6 -160 0 -113 3 -144 21
-192 l21 -58 -28 0 c-49 0 -52 -15 -41 -162 6 -73 16 -149 21 -168 6 -19 10
-54 10 -78 0 -35 4 -44 23 -51 32 -12 47 -107 45 -276 -2 -101 2 -145 16 -195
10 -36 18 -73 18 -83 -1 -24 -51 -83 -82 -96 -52 -22 -152 -31 -223 -20 -38 6
-71 8 -74 6 -7 -8 74 -66 122 -88 22 -10 34 -19 27 -19 -23 0 -106 47 -157 89
-71 59 -135 73 -218 50 -21 -5 -50 -22 -66 -37 -15 -15 -19 -20 -8 -12 10 8
37 20 60 26 35 9 48 8 77 -7 19 -9 59 -28 88 -40 29 -13 56 -27 59 -32 7 -11
-222 -4 -250 8 -13 6 -20 0 -31 -26 l-14 -34 -11 28 c-13 34 -26 29 -35 -14
-3 -18 -9 -29 -12 -26 -15 14 9 78 44 117 25 28 55 48 92 61 l55 20 -74 -4
c-67 -3 -76 -5 -96 -31 -13 -16 -28 -26 -33 -22 -16 9 -51 -15 -45 -31 3 -7 1
-14 -3 -14 -5 -1 -19 -3 -31 -4 -28 -3 -44 -16 -85 -67 -23 -30 -28 -42 -19
-48 9 -5 3 -11 -17 -18 -22 -8 -34 -21 -45 -54 -12 -33 -16 -38 -16 -18 -1 14
8 39 18 56 l19 31 -26 -5 c-25 -5 -25 -4 -9 19 24 33 22 37 -20 36 -24 -1 -46
-10 -66 -28 -16 -15 -44 -30 -62 -33 -44 -9 -77 -36 -120 -99 -19 -29 -65 -83
-101 -122 -82 -86 -180 -216 -200 -264 -8 -20 -31 -50 -51 -67 -35 -30 -36
-32 -24 -62 11 -26 10 -39 -3 -79 -8 -26 -20 -76 -25 -110 -5 -34 -17 -72 -25
-85 -8 -13 -22 -56 -31 -96 -8 -40 -21 -86 -30 -101 -27 -54 -64 -161 -59
-174 8 -22 -65 -244 -108 -328 -39 -77 -41 -84 -35 -147 6 -78 58 -218 90
-246 48 -40 133 -74 205 -81 l72 -8 26 -45 c44 -74 104 -133 169 -163 67 -32
62 -22 107 -206 l20 -83 -31 -122 c-36 -141 -58 -281 -68 -421 l-6 -97 753 0
753 0 -21 21 c-25 22 -30 54 -8 46 8 -3 20 2 28 11 7 9 8 13 1 9 -6 -4 -19 -4
-29 0 -15 6 -15 7 5 15 12 4 19 12 16 18 -4 6 -11 8 -16 4 -6 -3 -13 3 -16 15
-3 12 -12 21 -20 21 -10 0 -13 -6 -9 -16 12 -32 -7 -36 -20 -4 -20 46 -18 71
4 63 9 -4 20 -11 24 -17 5 -8 11 -7 20 2 9 9 9 12 -5 12 -21 0 -22 16 -2 24 8
3 15 10 15 16 0 6 -10 2 -22 -10 -25 -23 -34 -25 -44 -9 -5 8 -9 8 -14 -1 -16
-25 -29 0 -15 27 12 22 12 29 0 46 -7 10 -11 30 -9 42 2 13 0 27 -6 30 -9 6
-16 -28 -9 -50 3 -12 0 -62 -5 -90 -3 -11 -5 -23 -5 -27 -1 -5 -6 -8 -12 -8
-6 0 -8 7 -5 16 17 45 18 64 2 64 -9 0 -17 5 -17 10 -1 6 -3 15 -4 20 -1 6 -4
20 -5 33 -3 32 -19 -47 -19 -100 -1 -27 -6 -43 -13 -43 -10 0 -10 -2 0 -9 8
-5 12 -22 10 -46 -2 -29 -8 -39 -23 -41 -15 -2 -21 2 -21 16 0 11 4 20 8 20 4
0 8 5 8 10 0 14 -37 12 -43 -2 -3 -8 -6 -7 -6 4 -1 9 -10 19 -20 23 -15 5 -19
13 -16 36 2 20 -1 29 -11 29 -8 0 -14 -6 -15 -12 0 -7 -5 -1 -11 14 -7 22 -6
31 5 43 19 19 15 48 -7 51 -13 2 -15 -1 -6 -11 10 -12 4 -45 -9 -45 -7 0 -41
37 -41 45 0 3 8 5 18 5 16 1 16 1 -1 11 -10 6 -27 9 -38 6 -11 -3 -19 0 -19 7
0 8 10 11 29 8 16 -2 39 1 50 8 17 9 26 8 39 -2 11 -9 14 -9 8 -1 -8 14 10 53
24 53 6 0 10 -10 10 -22 1 -21 2 -21 11 -5 5 9 16 17 22 17 13 0 14 -32 3
-117 -3 -24 -1 -43 5 -43 5 0 9 8 9 17 0 9 7 25 17 35 15 17 15 18 -1 18 -9 0
-14 5 -11 10 4 6 9 23 11 38 6 29 24 55 24 33 0 -7 4 -10 9 -6 5 3 12 -3 14
-12 4 -17 5 -17 6 0 1 14 7 16 27 11 17 -4 29 -2 35 7 6 10 9 8 9 -9 0 -13 4
-20 10 -17 6 4 8 11 5 16 -8 12 25 25 34 13 3 -5 49 -10 101 -11 52 -1 112 -6
133 -11 25 -7 37 -7 37 1 0 5 9 2 19 -7 16 -15 26 -16 53 -8 47 15 82 9 86
-14 7 -35 22 -39 22 -6 l0 31 42 -19 c23 -10 46 -27 49 -37 4 -10 8 -12 8 -5
1 6 8 12 16 12 8 0 15 -6 15 -12 0 -9 3 -10 8 -2 4 6 24 11 44 10 28 -1 38 -5
38 -18 0 -9 3 -24 7 -34 4 -12 3 -15 -5 -10 -17 10 -15 -3 3 -20 13 -14 15
-11 15 29 0 24 3 46 6 50 9 9 64 -14 64 -26 0 -7 4 -7 9 2 7 11 12 10 28 -5
22 -21 39 -59 23 -49 -16 10 -12 -11 5 -25 8 -7 12 -16 9 -21 -3 -5 -1 -9 5
-9 10 0 8 -40 -3 -58 -9 -15 35 -64 52 -57 10 3 12 0 8 -10 -6 -17 13 -16 29
1 14 16 45 25 45 14 0 -6 -6 -10 -12 -10 -7 0 -5 -5 5 -11 21 -12 23 -33 2
-25 -9 3 -15 0 -15 -9 0 -9 10 -15 26 -15 21 0 24 4 19 20 -4 11 -2 20 4 20 6
0 7 7 4 17 -4 11 -3 14 5 9 11 -7 17 13 13 38 -1 5 1 16 4 24 5 13 9 11 21 -7
9 -12 13 -25 10 -28 -3 -3 0 -13 6 -21 7 -8 12 -26 13 -41 l0 -26 698 -3 c558
-2 697 0 697 10 0 7 -14 114 -31 237 -23 165 -29 229 -21 246 9 19 20 23 80
27 52 4 83 13 129 37 119 64 164 127 213 296 13 44 27 85 31 91 5 5 39 16 76
24 56 11 84 24 155 74 103 72 101 59 31 225 -67 160 -83 207 -104 316 -10 54
-33 132 -50 173 -17 41 -32 94 -33 117 -2 23 -6 48 -10 54 -4 6 -14 57 -22
113 -8 60 -24 123 -39 156 -16 34 -25 72 -25 103 0 100 -37 211 -87 263 -51
52 -122 83 -211 92 -40 4 -70 9 -67 13 13 13 131 -1 167 -19 34 -18 37 -18 41
-2 4 14 5 13 6 -3 1 -16 81 -87 81 -72 0 2 -23 46 -52 98 -28 52 -62 114 -74
139 -35 69 -124 181 -171 215 -31 22 -40 35 -37 50 4 15 3 17 -4 6 -9 -12 -15
-12 -38 4 -24 16 -26 19 -11 24 16 6 15 9 -7 31 -30 27 -43 22 -26 -10 16 -30
7 -35 -37 -22 -51 15 -137 93 -165 148 -26 53 -36 61 -45 39 -3 -10 0 -21 7
-25 8 -5 8 -10 2 -14 -6 -3 -12 -3 -14 2 -1 4 -21 21 -42 37 l-39 30 15 -30
c9 -17 23 -56 32 -87 19 -68 34 -78 113 -78 34 0 74 -8 98 -19 41 -18 95 -72
95 -94 0 -6 -14 6 -32 27 -42 52 -98 76 -175 76 -49 0 -67 4 -82 19 -18 18
-41 78 -41 107 0 6 -18 38 -39 72 -78 120 -136 121 -371 1 -102 -51 -107 -53
-186 -52 -44 0 -89 5 -99 10 -13 8 7 9 72 6 86 -5 133 4 133 27 0 11 -66 33
-83 27 -18 -6 -138 41 -163 64 -11 10 -30 19 -41 19 -11 0 -29 12 -38 27 -10
14 -35 45 -55 67 l-38 41 15 70 c11 49 13 104 10 185 -6 138 16 268 45 262 33
-6 36 12 42 228 2 69 8 139 14 156 13 41 -4 76 -43 89 -29 10 -30 11 -18 45
28 81 7 318 -36 405 -10 22 -17 45 -14 52 3 7 0 20 -6 27 -16 19 5 32 25 16
12 -11 14 -9 11 8 -2 12 -11 29 -20 40 -12 13 -14 21 -6 29 7 7 3 12 -15 17
-14 3 -26 13 -26 21 0 8 -3 14 -7 14 -31 -5 -35 2 -28 50 6 47 6 49 -14 44
-17 -4 -20 -2 -15 12 6 14 3 16 -14 11 -16 -5 -19 -3 -16 11 4 14 -1 18 -20
19 -15 1 -26 -1 -26 -5 0 -21 -51 0 -87 37 -24 24 -43 38 -43 32 0 -5 -7 -10
-15 -10 -8 0 -15 4 -15 10 0 5 -7 7 -15 4 -8 -4 -15 -1 -15 6 0 6 -6 10 -12 7
-7 -2 -20 -1 -29 4 -16 8 -63 20 -87 21 -7 1 -11 7 -8 14 3 8 1 16 -4 19 -6 4
-10 -3 -10 -14 0 -19 -3 -19 -27 -9 -16 6 -40 25 -55 42 l-26 31 -7 -28z m154
-261 c30 -2 59 -10 69 -20 10 -9 26 -16 35 -16 11 0 26 -20 43 -55 15 -34 35
-60 49 -67 32 -14 34 -42 3 -34 -13 3 -18 3 -11 0 7 -3 9 -12 6 -20 -3 -8 1
-14 11 -14 9 0 16 -4 16 -10 0 -5 7 -10 15 -10 8 0 15 -7 15 -15 0 -8 0 -18 0
-22 0 -5 -6 -8 -12 -8 -8 0 -12 -11 -10 -28 1 -15 -1 -26 -5 -26 -8 2 -26 -4
-68 -21 -35 -15 -65 -18 -65 -8 0 6 -16 7 -42 2 -24 -4 -74 -7 -113 -7 l-70 1
60 -13 c42 -9 51 -13 30 -14 -22 -1 -26 -4 -16 -10 12 -8 13 -15 3 -35 -7 -16
-8 -28 -2 -31 6 -4 10 -16 10 -27 0 -43 43 -137 87 -189 39 -47 36 -45 -15 10
-52 54 -63 74 -78 130 -21 82 -30 92 -38 47 -4 -22 -1 -48 9 -72 19 -46 13
-55 -33 -51 -36 4 -37 5 -34 43 2 22 10 49 18 61 14 22 10 53 -7 53 -5 0 -9
-7 -9 -15 0 -25 -40 -123 -61 -147 -16 -19 -15 -14 6 35 31 71 33 139 6 166
-14 14 -16 21 -8 25 7 2 -1 5 -18 6 -22 2 -14 6 30 15 l60 13 -72 1 c-63 1
-72 -1 -66 -15 5 -14 3 -15 -15 -5 -11 6 -22 16 -24 22 -2 7 -12 7 -31 0 -16
-6 -43 -11 -62 -11 -53 0 -177 -48 -207 -80 -27 -29 -48 -85 -48 -127 0 -22
-1 -22 -20 -6 -23 20 -26 39 -7 50 8 4 24 27 37 51 28 51 100 100 161 110 23
4 44 12 46 19 6 16 -56 45 -80 37 -16 -5 -18 -2 -12 15 5 16 3 19 -8 15 -20
-7 -10 43 16 78 16 21 24 25 34 17 18 -16 16 -4 -3 15 -14 15 -14 16 1 16 9 0
14 3 12 8 -9 14 13 53 25 46 8 -5 9 -2 5 10 -4 10 -1 19 7 22 8 3 16 14 19 25
7 26 37 14 38 -15 0 -21 0 -21 11 2 8 16 20 22 45 22 19 0 48 8 64 17 25 15
31 15 38 4 6 -9 11 -10 15 -2 4 6 18 8 33 5 18 -5 24 -3 19 5 -4 6 -2 11 4 11
6 0 15 -11 21 -24 7 -14 17 -22 25 -19 8 3 11 10 7 16 -10 17 -10 58 1 47 5
-5 15 -3 24 6 11 11 17 12 22 4 4 -6 30 -13 59 -14z m-269 -21 c-14 -16 -50
-21 -50 -6 0 8 15 14 54 20 5 0 3 -6 -4 -14z m548 -386 c12 -5 22 -11 22 -13
0 -6 -103 24 -110 31 -6 7 57 -7 88 -18z m168 -159 c16 0 19 -26 3 -35 -14 -9
-16 -6 -21 30 -3 17 -3 24 -1 18 3 -7 11 -13 19 -13z m-696 -123 c0 -2 -17
-19 -37 -38 l-38 -34 34 38 c33 34 41 42 41 34z m155 -16 c32 -19 35 -43 9
-68 -20 -20 -74 -12 -91 13 -12 19 -11 24 13 47 31 31 30 31 69 8z m92 -77
c-9 -9 -28 6 -21 18 4 6 10 6 17 -1 6 -6 8 -13 4 -17z m-289 -48 c-2 -45 13
-76 38 -76 8 0 14 -3 14 -7 0 -10 -67 -70 -112 -100 -42 -29 -60 -52 -77 -105
-7 -21 -17 -38 -22 -38 -6 0 -8 4 -5 9 3 5 -1 12 -10 15 -12 4 -15 2 -10 -9 7
-19 -14 -67 -28 -62 -6 2 -17 -2 -24 -10 -7 -7 -21 -12 -30 -12 -15 1 -15 2 1
6 9 2 17 13 17 24 0 12 -4 17 -11 13 -8 -4 -10 7 -7 39 4 37 2 44 -10 39 -10
-4 -13 -1 -8 7 10 15 -13 73 -25 65 -5 -3 -9 4 -9 15 0 12 5 21 10 21 7 0 7 6
1 18 -6 11 -6 24 0 33 5 7 9 23 9 34 0 25 51 55 94 55 35 0 125 28 172 54 16
8 30 15 31 16 2 0 2 -20 1 -44z m427 -1 c39 -13 84 -25 101 -25 55 0 65 -16
70 -113 3 -68 1 -93 -11 -111 -11 -16 -13 -26 -5 -31 15 -9 2 -25 -15 -19 -9
4 -18 -3 -24 -17 -6 -16 -10 -18 -10 -8 -1 20 -116 140 -152 158 -15 7 -37 27
-49 43 -20 28 -21 31 -5 48 9 10 18 37 18 59 1 23 4 41 7 41 3 0 37 -11 75
-25z m-200 -25 c3 -5 3 -21 -1 -35 -5 -19 -9 -23 -19 -15 -9 8 -14 8 -17 0 -4
-13 -68 7 -68 21 0 5 -1 12 -2 17 -2 4 17 10 42 13 25 3 48 7 52 7 4 1 9 -2
13 -8z m-55 -140 c0 -5 -2 -10 -4 -10 -3 0 -8 5 -11 10 -3 6 -1 10 4 10 6 0
11 -4 11 -10z m45 0 c-3 -5 -13 -10 -21 -10 -8 0 -12 5 -9 10 3 6 13 10 21 10
8 0 12 -4 9 -10z m69 -100 c23 -7 40 -19 43 -31 3 -10 9 -16 14 -13 5 3 14 -8
20 -23 6 -15 14 -35 18 -43 4 -8 5 -23 3 -33 -5 -25 -44 -15 -94 24 -32 26
-37 35 -32 56 5 18 3 24 -4 19 -6 -4 -19 2 -29 14 -24 28 -50 25 -81 -8 -30
-31 -103 -78 -114 -74 -5 1 -8 -2 -8 -8 0 -18 -28 -11 -57 15 -15 13 -23 25
-17 25 7 0 14 9 17 21 3 12 10 18 15 15 5 -3 19 6 30 19 12 13 32 27 44 29 13
3 32 7 43 10 31 7 145 -1 189 -14z m-457 -734 c-4 -11 1 -13 23 -11 16 2 32 0
35 -5 4 -6 -2 -7 -12 -3 -15 6 -16 4 -5 -9 7 -9 24 -19 38 -22 14 -4 23 -10
20 -15 -3 -4 22 -7 54 -6 33 1 60 -2 60 -7 0 -5 9 -6 20 -3 14 5 20 2 20 -9 0
-9 6 -16 13 -16 8 0 7 -4 -3 -10 -12 -8 -9 -10 13 -10 15 0 27 -6 27 -12 0 -9
3 -10 8 -2 9 14 43 15 60 1 8 -6 12 -6 12 1 0 6 7 9 15 6 8 -4 15 -2 15 3 0 5
21 10 47 12 26 1 55 9 64 17 20 18 30 18 23 -1 -7 -18 12 -20 19 -2 4 9 8 9
15 -2 5 -7 14 -11 20 -7 11 7 10 -19 -1 -30 -13 -13 -7 -26 8 -20 8 3 15 1 15
-4 0 -6 7 -10 16 -10 8 0 12 -5 9 -11 -4 -6 -13 -8 -21 -5 -9 4 -14 0 -12 -9
2 -7 -1 -15 -7 -16 -19 -5 -36 -29 -29 -41 5 -8 2 -9 -9 -5 -13 5 -16 0 -13
-30 1 -19 -3 -41 -11 -48 -10 -11 -10 -14 0 -18 15 -7 -25 -10 -78 -8 -26 2
-46 9 -57 22 -10 12 -23 17 -29 13 -8 -4 -9 -3 -5 4 10 16 -16 15 -33 0 -11
-11 -13 -10 -8 5 4 9 2 17 -2 17 -5 0 -16 3 -25 6 -11 4 -16 0 -16 -14 0 -11
-7 -23 -16 -26 -8 -3 -12 -2 -9 4 7 11 -8 14 -18 3 -4 -3 -23 -8 -42 -10 -38
-4 -48 13 -12 21 12 2 5 4 -15 2 -21 -1 -38 2 -38 6 0 4 9 8 21 8 11 0 17 5
14 10 -3 6 -15 10 -26 10 -11 0 -22 7 -25 15 -4 8 -14 15 -23 15 -16 0 -81 63
-81 80 0 4 -4 10 -9 12 -5 2 -11 12 -13 23 -3 23 -17 39 -38 48 -11 4 -10 6 5
6 14 1 16 4 8 12 -10 10 -4 53 12 79 9 15 18 12 12 -4z m-32 -15 c-3 -6 -11
-11 -16 -11 -5 0 -4 6 3 14 14 16 24 13 13 -3z m-980 -61 c3 -5 -1 -10 -9 -10
-9 0 -16 5 -16 10 0 6 4 10 9 10 6 0 13 -4 16 -10z m531 -42 c-9 -5 -22 -7
-29 -4 -7 2 -4 5 6 5 9 1 17 6 17 12 0 5 5 7 11 3 8 -5 6 -10 -5 -16z m1789
-8 c3 -5 2 -10 -4 -10 -5 0 -13 5 -16 10 -3 6 -2 10 4 10 5 0 13 -4 16 -10z
m443 -52 c34 -7 62 -16 62 -20 0 -20 -75 -40 -125 -34 -64 8 -195 53 -175 60
46 16 127 14 238 -6z m-2878 -58 c18 -12 2 -12 -25 0 -13 6 -15 9 -5 9 8 0 22
-4 30 -9z m1385 -130 c3 -5 1 -10 -4 -10 -6 0 -11 5 -11 10 0 6 2 10 4 10 3 0
8 -4 11 -10z m-559 -77 c12 -7 25 -9 29 -5 5 4 5 1 1 -6 -5 -7 -14 -11 -22 -8
-8 3 -14 1 -14 -4 0 -6 -27 -10 -61 -10 -33 0 -58 4 -55 9 3 5 -5 11 -19 13
-15 3 -25 1 -25 -6 0 -6 -4 -4 -10 4 -6 9 -5 17 1 21 18 11 153 4 175 -8z
m2467 -10 c-7 -2 -21 -2 -30 0 -10 3 -4 5 12 5 17 0 24 -2 18 -5z m60 0 c-7
-2 -21 -2 -30 0 -10 3 -4 5 12 5 17 0 24 -2 18 -5z m-3849 -39 c5 -14 4 -15
-9 -4 -17 14 -19 20 -6 20 5 0 12 -7 15 -16z m190 -9 c-1 -13 -51 -42 -88 -51
-21 -5 -27 -4 -22 5 4 6 1 11 -6 11 -7 1 7 12 32 25 45 24 86 29 84 10z m3574
-59 c23 -30 42 -60 42 -68 0 -7 -11 4 -24 25 -12 20 -35 51 -49 67 -15 17 -24
30 -19 30 4 0 26 -24 50 -54z m98 -56 c5 3 8 8 7 13 -5 14 15 7 38 -13 l24
-20 -39 2 c-46 3 -84 44 -71 75 6 15 10 10 20 -22 6 -22 16 -38 21 -35z m58
39 c14 -11 26 -25 26 -31 0 -7 -10 -2 -22 9 -13 11 -32 25 -43 31 -16 9 -17
11 -4 12 9 0 28 -9 43 -21z m-3874 -39 c0 -5 -5 -10 -11 -10 -5 0 -7 5 -4 10
3 6 8 10 11 10 2 0 4 -4 4 -10z m1423 -8 c-2 -7 3 -12 10 -12 6 0 20 -7 30
-14 16 -12 16 -17 6 -34 -13 -20 -14 -20 -52 11 -22 18 -49 40 -61 49 -21 17
-20 17 24 14 28 -2 44 -7 43 -14z m1033 -9 c-7 -7 -26 7 -26 19 0 6 6 6 15 -2
9 -7 13 -15 11 -17z m339 -13 c-3 -5 -13 -10 -21 -10 -8 0 -12 5 -9 10 3 6 13
10 21 10 8 0 12 -4 9 -10z m155 0 c0 -5 -4 -10 -10 -10 -5 0 -10 5 -10 10 0 6
5 10 10 10 6 0 10 -4 10 -10z m-3010 -20 c-33 -26 -52 -25 -21 0 13 11 28 20
35 20 6 0 0 -9 -14 -20z m2530 10 c12 -7 12 -12 2 -22 -9 -9 -12 -9 -12 1 0 7
-4 9 -10 6 -5 -3 -10 1 -10 9 0 18 8 20 30 6z m1322 -32 c24 -42 44 -87 34
-77 -9 9 -66 119 -62 119 2 0 15 -19 28 -42z m108 32 c12 -8 10 -10 -10 -10
-14 0 -32 5 -40 10 -12 8 -10 10 10 10 14 0 32 -5 40 -10z m-1165 -10 c-3 -5
-11 -10 -16 -10 -6 0 -7 5 -4 10 3 6 11 10 16 10 6 0 7 -4 4 -10z m-1165 -70
c0 -10 40 -31 83 -44 13 -4 17 -12 12 -26 -5 -16 -3 -19 12 -13 15 6 16 4 5
-9 -10 -13 -9 -16 9 -21 12 -3 18 -10 14 -16 -7 -13 -3 -14 19 -5 9 3 13 10
10 15 -3 5 0 9 5 9 6 0 11 -7 11 -15 0 -8 7 -15 15 -15 8 0 15 -4 15 -9 0 -5
3 -17 7 -27 4 -12 3 -15 -5 -10 -7 4 -12 2 -12 -4 0 -7 6 -10 14 -7 8 3 20 -2
28 -11 17 -20 40 -72 32 -72 -3 0 -36 26 -72 58 -37 32 -116 98 -177 147 -113
90 -140 114 -118 101 16 -9 53 15 53 34 0 8 9 0 20 -18 11 -18 20 -37 20 -42z
m15 52 c-3 -3 -11 0 -18 7 -9 10 -8 11 6 5 10 -3 15 -9 12 -12z m1195 -2 c0
-5 -5 -10 -11 -10 -5 0 -7 5 -4 10 3 6 8 10 11 10 2 0 4 -4 4 -10z m1237 -12
c-3 -8 -6 -5 -6 6 -1 11 2 17 5 13 3 -3 4 -12 1 -19z m-1202 -7 c-3 -5 3 -11
12 -14 17 -4 17 -4 -1 -12 -21 -9 -42 15 -23 27 16 10 19 10 12 -1z m-2188
-33 c-3 -8 -6 -5 -6 6 -1 11 2 17 5 13 3 -3 4 -12 1 -19z m989 -3 c13 -14 22
-25 20 -25 -12 0 -51 28 -53 38 -4 19 8 14 33 -13z m2391 3 c-3 -8 -6 -5 -6 6
-1 11 2 17 5 13 3 -3 4 -12 1 -19z m-1232 2 c-3 -5 -13 -10 -21 -10 -8 0 -12
5 -9 10 3 6 13 10 21 10 8 0 12 -4 9 -10z m-2410 -12 c14 -6 25 -15 25 -20 0
-13 -13 -9 -40 12 -28 22 -23 25 15 8z m115 2 c0 -5 -8 -10 -17 -10 -15 0 -16
2 -3 10 19 12 20 12 20 0z m2330 -10 c0 -5 -9 -10 -21 -10 -11 0 -17 5 -14 10
3 6 13 10 21 10 8 0 14 -4 14 -10z m-3005 -28 c-3 -3 -11 0 -18 7 -9 10 -8 11
6 5 10 -3 15 -9 12 -12z m3099 3 c-6 -16 -35 -35 -51 -35 -7 1 47 50 54 50 1
0 0 -7 -3 -15z m520 -26 c-9 -18 -25 -56 -35 -83 -11 -33 -18 -43 -18 -28 -1
12 3 30 8 40 5 9 19 39 31 65 12 26 24 46 27 43 2 -2 -3 -19 -13 -37z m-2974
16 c7 -8 9 -15 4 -15 -5 0 -3 -4 5 -9 7 -5 9 -11 3 -14 -5 -4 -21 7 -36 23
-23 27 -24 30 -7 30 10 0 24 -7 31 -15z m2360 5 c0 -5 -5 -10 -11 -10 -5 0 -7
5 -4 10 3 6 8 10 11 10 2 0 4 -4 4 -10z m-120 -30 c0 -5 -5 -10 -11 -10 -5 0
-7 5 -4 10 3 6 8 10 11 10 2 0 4 -4 4 -10z m-1770 -35 c0 -10 -10 -15 -27 -15
-20 0 -24 -3 -14 -9 10 -6 12 -20 7 -47 -6 -34 -5 -37 7 -22 8 10 17 14 22 10
4 -4 4 4 0 16 -6 20 -4 23 12 20 10 -2 16 -11 14 -19 -2 -8 -4 -20 -4 -26 0
-7 -4 -13 -9 -13 -4 0 -8 -5 -8 -11 0 -5 5 -7 11 -4 7 5 8 -5 3 -32 -4 -21 -8
-40 -10 -42 -2 -2 -38 -6 -79 -9 l-76 -5 6 29 c4 16 11 42 16 58 5 16 9 41 8
55 0 21 -3 17 -13 -16 -8 -23 -17 -62 -20 -87 -5 -31 -12 -46 -22 -46 -12 0
-13 10 -8 53 4 28 14 66 22 82 17 31 19 36 21 58 1 9 3 9 10 -2 6 -10 10 -10
16 -1 5 8 12 6 27 -7 11 -9 18 -13 17 -8 -5 23 13 42 37 37 14 -2 24 0 24 7 0
6 2 11 5 11 3 0 5 -7 5 -15z m1800 2 c0 -7 -9 -23 -21 -36 -11 -12 -18 -29
-15 -37 3 -8 -1 -14 -9 -14 -13 0 -13 5 0 37 22 53 45 78 45 50z m-2440 -12
c0 -9 -6 -12 -15 -9 -8 4 -15 10 -15 15 0 5 7 9 15 9 8 0 15 -7 15 -15z m2685
-13 c-3 -3 -11 0 -18 7 -9 10 -8 11 6 5 10 -3 15 -9 12 -12z m-2605 -32 c0 -5
-12 -5 -28 1 -16 5 -29 16 -29 24 0 12 5 12 29 -1 15 -8 28 -19 28 -24z m247
-2 c-3 -7 -5 -2 -5 12 0 14 2 19 5 13 2 -7 2 -19 0 -25z m1370 10 c7 -6 17 -7
24 -3 8 6 8 2 0 -12 -6 -11 -7 -23 -4 -27 3 -3 -1 -6 -11 -6 -9 0 -14 5 -11
10 3 6 -5 14 -19 20 -29 11 -37 43 -8 33 9 -3 22 -10 29 -15z m-2068 -43 c13
-24 48 -67 77 -95 56 -53 64 -70 39 -90 -11 -10 -27 1 -86 60 -39 39 -69 74
-66 77 3 2 22 -14 43 -37 43 -47 92 -85 101 -76 3 3 -21 34 -54 70 -65 69
-107 136 -85 136 4 0 18 -20 31 -45z m818 30 c0 -8 -4 -12 -9 -9 -5 3 -6 10
-3 15 9 13 12 11 12 -6z m2620 -32 c-3 -10 -5 -4 -5 12 0 17 2 24 5 18 2 -7 2
-21 0 -30z m260 31 c-3 -3 -12 -4 -19 -1 -8 3 -5 6 6 6 11 1 17 -2 13 -5z
m-3254 -38 c15 -11 27 -25 27 -32 0 -7 4 -14 9 -16 5 -1 18 -19 29 -38 12 -22
26 -34 36 -32 9 2 16 -4 16 -13 0 -8 4 -15 8 -15 4 0 15 -16 24 -35 l15 -35
-26 6 -26 6 27 -24 c17 -15 28 -36 30 -60 4 -35 2 -38 -23 -38 -20 0 -30 7
-39 30 -7 16 -16 27 -20 25 -5 -3 -11 -1 -15 5 -3 5 -11 10 -16 10 -6 0 -7 -4
-4 -10 3 -5 2 -10 -4 -10 -10 0 -16 14 -26 70 -4 19 -16 67 -28 105 -11 39
-20 73 -19 76 1 4 -8 15 -18 24 -44 39 -11 40 43 1z m3217 25 c0 -5 -14 -14
-32 -20 -34 -12 -32 -6 4 15 13 6 24 12 26 13 1 1 2 -3 2 -8z m-3270 -130 c14
-28 26 -48 28 -46 6 6 -46 117 -66 140 -16 19 -16 19 1 6 38 -30 85 -136 101
-229 3 -18 2 -31 -3 -27 -5 3 -7 -5 -4 -17 4 -23 4 -23 -12 -3 -22 28 -95 174
-95 192 0 8 5 11 12 7 7 -4 8 -3 4 5 -4 6 -11 9 -15 6 -5 -2 -11 8 -14 24 -3
16 -13 36 -22 44 -8 9 -15 19 -15 24 1 18 78 -79 100 -126z m413 91 c-3 -12
-10 -22 -15 -22 -5 0 -7 3 -5 8 2 4 7 16 11 26 9 25 17 16 9 -12z m1597 18 c0
-5 -4 -10 -10 -10 -5 0 -10 5 -10 10 0 6 5 10 10 10 6 0 10 -4 10 -10z m-1323
-42 c-2 -19 3 -41 11 -50 14 -16 13 -18 -9 -18 -25 0 -65 20 -41 20 6 0 12 7
12 15 0 8 5 15 11 15 5 0 8 4 5 9 -6 9 2 41 10 41 2 0 2 -15 1 -32z m-838 -5
c13 -28 13 -28 -8 -9 -22 20 -27 36 -13 36 5 0 14 -12 21 -27z m2182 17 c3
-20 4 -25 11 -35 4 -6 3 -17 -1 -24 -6 -10 -10 -10 -16 -2 -5 9 -10 9 -21 0
-9 -7 -18 -9 -24 -3 -11 11 -1 56 10 49 4 -3 10 2 14 10 6 17 25 20 27 5z
m818 -54 c1 -19 -3 -26 -8 -20 -9 9 -15 46 -11 74 2 24 18 -20 19 -54z m-238
4 c6 0 8 4 5 9 -3 5 1 11 9 15 10 3 15 -1 15 -11 0 -9 3 -13 7 -10 3 4 12 2
19 -4 8 -6 14 -7 18 0 4 6 14 7 22 4 9 -3 20 0 24 7 7 11 12 10 25 -3 20 -21
35 -22 35 -2 0 8 5 15 10 15 6 0 10 -9 10 -21 0 -19 -5 -20 -112 -19 -62 1
-156 -1 -208 -4 -52 -3 -87 -3 -77 0 9 3 17 10 17 15 0 13 34 11 47 -2 9 -9
11 -7 7 7 -4 16 1 19 42 21 26 1 52 7 58 13 8 8 12 6 14 -9 2 -12 8 -21 13
-21z m-2201 10 c0 -11 -4 -20 -8 -20 -4 0 -8 9 -8 20 0 11 4 20 8 20 4 0 8 -9
8 -20z m-738 -117 c42 -29 44 -31 24 -58 -13 -18 -14 -18 -47 6 -45 31 -141
119 -132 119 5 0 24 -15 43 -33 33 -31 113 -87 125 -87 15 0 2 31 -17 41 -30
16 -138 119 -138 132 0 5 23 -14 52 -43 29 -29 69 -64 90 -77z m188 37 l55
-52 -55 44 c-30 24 -56 46 -58 51 -2 4 -10 7 -18 7 -8 0 -14 5 -14 10 0 17 29
-3 90 -60z m896 61 c-4 -5 0 -12 6 -14 7 -3 0 -6 -17 -6 -29 0 -29 0 -11 14
23 17 30 19 22 6z m1634 -12 c0 -5 -4 -9 -10 -9 -5 0 -10 7 -10 16 0 8 5 12
10 9 6 -3 10 -10 10 -16z m-2456 -15 c3 -8 2 -12 -4 -9 -6 3 -10 10 -10 16 0
14 7 11 14 -7z m923 10 c-3 -3 -12 -4 -19 -1 -8 3 -5 6 6 6 11 1 17 -2 13 -5z
m970 -36 c-3 -8 -6 -5 -6 6 -1 11 2 17 5 13 3 -3 4 -12 1 -19z m1453 18 c0 -3
-27 -21 -60 -41 -33 -20 -60 -38 -60 -40 0 -7 55 12 95 33 51 27 101 39 91 23
-4 -6 -13 -11 -21 -11 -8 0 -22 -9 -32 -19 -10 -11 -43 -27 -73 -36 -30 -9
-68 -23 -84 -31 -81 -41 -15 35 78 90 61 37 66 39 66 32z m-3349 -53 c13 -16
12 -17 -3 -4 -10 7 -18 15 -18 17 0 8 8 3 21 -13z m696 -15 c-3 -7 -5 -2 -5
12 0 14 2 19 5 13 2 -7 2 -19 0 -25z m160 -5 c-3 -10 -5 -4 -5 12 0 17 2 24 5
18 2 -7 2 -21 0 -30z m-1224 -12 c29 -21 67 -47 85 -57 35 -20 36 -22 23 -43
-6 -9 -17 -11 -32 -7 -32 8 -122 66 -115 73 3 3 11 1 18 -5 16 -13 105 -62
112 -62 3 0 6 6 6 13 0 8 -21 26 -47 40 -50 28 -124 86 -110 87 4 0 31 -17 60
-39z m411 23 c3 -8 2 -12 -4 -9 -6 3 -10 10 -10 16 0 14 7 11 14 -7z m723 -16
c-3 -7 -5 -2 -5 12 0 14 2 19 5 13 2 -7 2 -19 0 -25z m63 13 c5 -11 9 -39 9
-63 -2 -43 -2 -43 -8 10 -4 30 -13 57 -21 62 -10 6 -11 10 -3 10 7 0 17 -9 23
-19z m107 -43 c-2 -13 -4 -3 -4 22 0 25 2 35 4 23 2 -13 2 -33 0 -45z m1039
47 c14 -13 14 -16 -1 -21 -17 -7 -38 13 -29 28 7 11 13 10 30 -7z m-909 -27
c-3 -8 -6 -5 -6 6 -1 11 2 17 5 13 3 -3 4 -12 1 -19z m-365 -44 c-2 -55 -12
-54 -12 1 0 27 3 45 7 42 3 -4 6 -23 5 -43z m85 9 c-3 -10 -5 -4 -5 12 0 17 2
24 5 18 2 -7 2 -21 0 -30z m386 17 c3 -11 3 -20 1 -20 -2 0 -8 9 -14 20 -6 11
-7 20 -2 20 6 0 12 -9 15 -20z m-46 -57 c-2 -16 -4 -5 -4 22 0 28 2 40 4 28 2
-13 2 -35 0 -50z m2263 59 c0 -13 -68 -42 -118 -52 -34 -6 -49 -5 -59 5 -18
19 19 30 170 54 4 0 7 -3 7 -7z m-3330 -38 c12 -19 21 -37 18 -39 -2 -2 -14
14 -26 36 -28 49 -22 52 8 3z m-166 -40 c20 -36 35 -68 32 -71 -2 -3 -23 9
-45 27 -34 28 -40 38 -39 71 0 22 3 39 7 39 4 0 24 -30 45 -66z m32 51 c9 -8
23 -15 33 -15 10 0 39 -21 65 -47 42 -41 46 -48 30 -54 -16 -7 -16 -8 5 -8 15
-1 21 -6 18 -14 -4 -11 6 -13 46 -9 36 3 53 1 61 -9 6 -8 20 -15 31 -16 17 -1
17 1 -5 18 -14 10 -32 19 -40 19 -20 0 -40 19 -40 37 0 7 13 21 28 31 16 9 27
23 25 30 -5 14 6 15 27 2 11 -8 12 -12 3 -18 -9 -6 -3 -13 18 -26 21 -12 27
-21 20 -29 -7 -9 3 -11 38 -9 43 3 50 0 94 -40 26 -25 47 -52 47 -60 0 -15 -6
-14 -58 1 -31 10 -67 23 -79 29 -12 7 -30 12 -40 11 -11 0 -13 -3 -5 -6 10 -4
9 -8 -5 -19 -21 -16 -73 -19 -73 -3 0 5 5 7 12 3 6 -4 8 -3 5 3 -7 12 -54 5
-63 -8 -7 -12 -50 -11 -88 1 -17 5 -43 12 -58 15 -37 7 -48 47 -22 77 11 12
14 19 8 15 -6 -4 -18 1 -26 11 -49 55 -59 134 -12 87z m424 0 c0 -23 88 -114
131 -135 20 -11 66 -26 103 -34 73 -17 105 -32 183 -84 69 -45 69 -62 1 -18
-85 53 -131 74 -205 91 -80 18 -134 51 -192 118 -39 46 -52 77 -31 77 6 0 10
-7 10 -15z m3083 -25 c-10 -26 -21 -39 -29 -36 -8 3 -16 1 -19 -4 -7 -11 -74
-10 -81 1 -5 9 49 49 68 49 7 1 24 7 38 15 37 21 40 19 23 -25z m-2526 -47
c-2 -16 -4 -3 -4 27 0 30 2 43 4 28 2 -16 2 -40 0 -55z m2579 50 c-7 -7 -26 7
-26 19 0 6 6 6 15 -2 9 -7 13 -15 11 -17z m-2721 7 c3 -5 1 -10 -4 -10 -6 0
-11 5 -11 10 0 6 2 10 4 10 3 0 8 -4 11 -10z m422 -12 c-3 -8 -6 -5 -6 6 -1
11 2 17 5 13 3 -3 4 -12 1 -19z m803 -86 c-10 -75 -10 -103 -1 -120 14 -26 25
-27 80 -7 155 54 233 40 454 -82 l49 -27 111 37 c62 20 132 38 156 41 93 11
221 131 221 207 0 17 3 20 11 12 44 -44 -135 -233 -221 -233 -16 0 -77 -16
-136 -35 -58 -19 -121 -35 -138 -35 -19 0 -56 15 -92 36 -151 93 -250 112
-372 75 -139 -42 -173 -19 -152 103 29 161 49 181 30 28z m-1203 66 c-3 -7 -5
-2 -5 12 0 14 2 19 5 13 2 -7 2 -19 0 -25z m2380 16 c3 -8 12 -13 20 -10 25
10 4 -11 -32 -33 -27 -15 -35 -17 -35 -6 0 23 12 45 21 39 5 -3 6 2 3 10 -3 9
-1 16 5 16 7 0 14 -7 18 -16z m-2410 -51 c-3 -10 -5 -2 -5 17 0 19 2 27 5 18
2 -10 2 -26 0 -35z m417 5 c6 -5 3 -8 -10 -8 -18 0 -20 4 -16 28 5 22 7 24 10
7 2 -11 9 -23 16 -27z m63 -25 c-2 -16 -4 -5 -4 22 0 28 2 40 4 28 2 -13 2
-35 0 -50z m-237 32 c0 -14 -4 -25 -9 -25 -4 0 -6 11 -3 25 2 14 6 25 8 25 2
0 4 -11 4 -25z m197 -17 c-3 -7 -5 -2 -5 12 0 14 2 19 5 13 2 -7 2 -19 0 -25z
m2591 -2 c-40 -35 -47 -51 -25 -59 6 -2 9 -7 6 -11 -8 -8 -41 23 -37 35 3 8
79 67 88 68 3 0 -12 -15 -32 -33z m-3961 -6 c22 -17 23 -20 7 -20 -11 0 -25 9
-32 20 -7 11 -9 20 -6 20 3 0 17 -9 31 -20z m1306 -20 c-3 -11 -7 -20 -9 -20
-2 0 -4 9 -4 20 0 11 4 20 9 20 5 0 7 -9 4 -20z m-263 -4 c0 -2 -15 -6 -34 -8
-19 -2 -32 0 -30 4 5 8 64 12 64 4z m17 -38 c9 -7 9 -16 1 -34 -9 -18 -19 -24
-43 -24 -18 0 -37 6 -43 13 -12 14 -12 58 -1 51 4 -2 11 1 14 7 8 12 52 4 72
-13z m-992 -8 c3 -5 2 -10 -4 -10 -5 0 -13 5 -16 10 -3 6 -2 10 4 10 5 0 13
-4 16 -10z m3452 -12 c-3 -8 -6 -5 -6 6 -1 11 2 17 5 13 3 -3 4 -12 1 -19z
m499 13 c-3 -5 -22 -16 -41 -26 -40 -18 -42 -41 -4 -38 l24 2 -23 -11 c-19 -9
-25 -9 -33 3 -16 26 -9 38 34 58 51 23 49 23 43 12z m-445 -29 c8 -21 8 -22
-16 -6 -28 18 -33 37 -9 32 9 -2 20 -13 25 -26z m-770 2 c15 -18 22 -47 9 -39
-5 3 -10 0 -12 -7 -7 -19 -58 -16 -58 3 0 10 -6 19 -12 22 -10 3 -10 7 1 20
17 21 55 22 72 1z m735 -27 c2 -24 0 -25 -22 -17 -20 8 -24 6 -24 -10 0 -10
-4 -22 -10 -25 -16 -10 -12 31 4 45 8 6 13 17 10 24 -3 8 3 12 17 11 16 -1 23
-9 25 -28z m-2170 -2 c33 -14 80 -37 105 -50 26 -14 56 -25 68 -25 11 0 21 -4
21 -10 0 -21 -44 -9 -138 38 -129 63 -176 63 -284 3 -50 -27 -87 -41 -109 -40
l-34 1 32 8 c17 4 55 22 85 40 103 64 166 73 254 35z m-1208 3 c-6 -18 -28
-21 -28 -4 0 9 7 16 16 16 9 0 14 -5 12 -12z m3942 8 c0 -2 -7 -7 -16 -10 -8
-3 -12 -2 -9 4 6 10 25 14 25 6z m-525 -34 c-3 -3 -11 0 -18 7 -9 10 -8 11 6
5 10 -3 15 -9 12 -12z m470 -8 c-11 -9 -32 -20 -47 -26 -15 -5 -29 -17 -31
-26 -4 -13 -5 -12 -6 4 -1 15 11 25 47 41 58 26 62 27 37 7z m-3808 -41 c11
-14 14 -14 10 -3 -3 10 2 16 13 16 10 0 18 -5 17 -11 -1 -5 11 -11 27 -13 16
-2 26 0 22 6 -4 6 2 8 14 5 11 -3 20 -13 21 -22 0 -11 3 -9 9 6 8 19 14 21 47
16 21 -3 43 -12 50 -21 10 -12 15 -12 27 -3 12 10 19 8 36 -9 11 -11 25 -18
30 -15 5 3 12 1 15 -5 4 -6 15 -8 26 -5 11 4 19 2 19 -5 0 -7 6 -8 19 0 29 15
46 13 32 -3 -8 -11 -6 -18 11 -33 20 -18 21 -18 15 -1 -6 15 -3 17 13 12 16
-5 20 -2 20 14 0 12 4 21 9 21 5 0 7 -9 4 -20 -5 -19 -3 -21 40 -24 6 -1 15
-5 19 -11 4 -5 10 -2 13 8 5 13 11 14 25 7 10 -5 20 -7 23 -2 2 4 2 2 1 -5 -6
-25 60 -42 70 -18 9 24 26 17 26 -11 0 -22 2 -24 15 -14 8 7 20 8 27 4 7 -5
22 -9 33 -9 13 0 19 -7 19 -18 -2 -20 22 -23 29 -4 3 7 6 5 6 -6 1 -15 4 -15
21 -5 15 10 27 10 49 1 17 -6 30 -8 29 -5 0 4 0 14 1 22 1 13 2 13 11 0 11
-17 100 -22 100 -5 1 5 8 -3 16 -18 17 -31 34 -28 35 6 0 12 3 16 6 10 2 -7
11 -13 19 -13 10 0 12 -5 8 -12 -6 -10 -4 -10 8 0 11 9 23 10 42 2 16 -6 26
-6 26 0 0 5 7 6 17 3 11 -4 14 -3 9 6 -6 9 -3 9 13 -1 12 -7 21 -16 21 -21 0
-4 -4 -5 -10 -2 -5 3 -10 2 -10 -4 0 -18 18 -21 24 -5 5 13 9 14 21 4 8 -7 15
-9 15 -5 0 5 9 0 19 -9 11 -10 25 -15 31 -11 6 4 2 13 -12 25 l-23 18 28 -5
c15 -3 27 -10 27 -17 0 -6 12 -19 26 -29 l25 -19 -3 29 c-2 23 1 29 20 31 20
3 23 0 20 -24 -2 -15 3 -29 10 -31 7 -3 12 4 12 16 0 19 1 19 26 -4 14 -13 36
-27 48 -31 11 -4 26 -14 33 -23 11 -15 12 -14 13 2 0 19 20 24 20 5 0 -6 3 -9
6 -5 6 5 -32 66 -49 78 -5 3 -8 10 -7 15 1 5 -3 10 -9 12 -15 5 -14 -10 3 -34
23 -32 5 -50 -28 -29 -27 18 -31 27 -19 39 4 4 8 15 8 23 0 33 79 18 90 -17 3
-10 15 -26 27 -36 l22 -19 -17 28 c-21 33 -13 36 14 5 l18 -23 1 24 c0 20 2
21 15 11 8 -7 15 -9 15 -5 0 5 9 -3 21 -16 l20 -23 -6 34 -6 34 24 -22 c25
-23 40 -21 30 6 -4 10 -2 13 5 8 7 -4 12 -2 12 6 0 10 2 10 9 -1 5 -8 20 -16
32 -18 19 -3 21 -1 11 9 -21 21 -13 31 19 24 22 -4 29 -2 26 7 -2 6 -14 11
-25 9 -12 -2 -22 2 -22 7 0 19 56 12 75 -9 19 -21 41 -28 29 -8 -5 8 -2 9 10
5 10 -4 28 -7 40 -7 19 0 22 -4 18 -25 -3 -18 0 -25 12 -25 9 0 16 7 16 15 0
8 -5 15 -11 15 -5 0 -8 4 -4 9 3 5 -5 17 -17 25 -21 15 -21 16 -3 16 11 0 26
-9 32 -19 7 -11 26 -22 43 -26 18 -4 27 -11 24 -17 -5 -7 -2 -8 5 -4 9 6 8 12
-4 26 -16 17 -15 18 22 5 52 -19 65 -19 59 3 -10 29 38 27 54 -3 14 -26 21
-29 83 -40 20 -3 37 -10 37 -15 0 -4 8 -6 18 -4 11 3 23 -5 34 -23 10 -15 18
-23 18 -16 0 9 8 8 28 -3 15 -7 33 -14 40 -14 7 0 17 -12 22 -26 6 -14 19 -28
30 -31 11 -3 20 -8 20 -12 0 -4 16 -15 35 -25 19 -11 35 -23 35 -28 0 -5 -4
-6 -10 -3 -5 3 -10 -1 -10 -9 0 -9 -11 -18 -25 -22 -14 -3 -25 -13 -25 -21 0
-12 -3 -13 -15 -3 -8 6 -20 8 -27 4 -7 -5 -19 -9 -28 -10 -8 -2 -42 -7 -75
-12 -62 -10 -85 -7 -85 10 0 10 -61 1 -70 -11 -3 -4 -23 -12 -45 -19 -30 -9
-41 -9 -47 1 -5 9 -10 8 -20 -4 -18 -22 -49 -32 -42 -14 4 9 -1 13 -15 12 -11
0 -18 -3 -16 -5 11 -11 -42 -38 -71 -37 -19 0 -34 -3 -34 -7 0 -4 -6 -5 -14
-2 -8 3 -17 1 -21 -5 -3 -6 -14 -11 -23 -11 -10 0 -25 -11 -36 -24 -20 -27
-76 -52 -76 -34 0 6 -12 3 -26 -7 -14 -9 -43 -18 -63 -19 -21 -2 -57 -14 -81
-27 l-43 -24 -14 23 c-14 20 -41 33 -29 13 3 -4 -4 -17 -15 -27 -11 -10 -20
-14 -19 -9 5 25 -2 27 -26 5 -20 -20 -27 -22 -34 -10 -7 11 -13 9 -30 -11 -12
-13 -18 -17 -14 -9 6 12 4 13 -7 3 -7 -7 -21 -13 -32 -13 -10 0 -15 -5 -12
-10 3 -5 2 -10 -4 -10 -5 0 -12 6 -14 13 -3 7 -6 4 -6 -6 -1 -11 -6 -15 -12
-11 -6 3 -21 2 -32 -4 -52 -23 -79 -32 -87 -27 -9 5 -49 -12 -60 -26 -3 -3
-34 -14 -70 -23 -36 -9 -70 -23 -76 -31 -7 -9 -16 -15 -20 -14 -5 1 -22 -3
-37 -9 -16 -7 -37 -12 -47 -12 -10 0 -21 -7 -24 -16 -5 -12 -14 -15 -36 -10
-20 4 -29 2 -27 -6 1 -8 -14 -12 -45 -13 -27 0 -48 -2 -48 -6 0 -3 -12 -5 -27
-3 -16 2 -49 4 -75 6 -32 2 -48 8 -48 16 0 8 -6 12 -12 10 -7 -3 -19 2 -26 9
-11 11 -11 17 -2 28 7 8 9 15 6 15 -13 0 -36 -28 -36 -45 0 -9 -5 -13 -10 -10
-6 4 -9 14 -8 23 2 12 -6 18 -32 22 -28 4 -36 10 -39 30 -6 45 -41 49 -41 4 0
-15 -6 -24 -16 -24 -11 0 -14 6 -9 20 3 11 1 28 -5 37 -10 16 -11 15 -7 -4 6
-29 -12 -42 -20 -15 -6 24 -57 39 -77 23 -7 -6 -16 -8 -19 -4 -4 3 -7 1 -7 -6
0 -9 -5 -9 -21 0 -12 6 -46 12 -76 12 -35 2 -57 7 -63 17 -15 23 -12 33 9 27
13 -3 23 3 32 19 9 17 15 21 20 12 6 -9 9 -8 14 4 4 9 14 14 24 11 13 -3 21 5
30 35 16 48 8 66 -26 57 -16 -4 -22 -2 -18 5 4 6 -3 6 -19 -2 -14 -6 -26 -15
-26 -20 0 -4 -7 -8 -15 -8 -8 0 -15 -6 -15 -12 0 -9 -2 -10 -8 -2 -10 17 -85
36 -79 21 3 -7 10 -11 16 -9 6 1 11 -5 11 -13 0 -18 -21 -20 -38 -3 -9 9 -12
9 -12 -1 0 -7 -5 -9 -11 -6 -6 4 -8 13 -5 21 3 8 1 14 -4 14 -6 0 -10 -8 -10
-17 0 -12 -3 -14 -8 -6 -11 17 -103 9 -118 -11 -15 -22 -24 -20 -24 5 0 11 -4
17 -10 14 -5 -3 -10 1 -10 9 0 9 -8 16 -19 16 -30 0 -51 11 -51 26 0 8 -5 14
-11 14 -5 0 -7 -4 -4 -10 3 -5 -1 -10 -9 -10 -10 0 -16 9 -16 21 0 21 0 21
-20 -2 -19 -24 -19 -24 -20 -3 0 12 -7 24 -15 28 -8 3 -12 12 -9 21 3 8 2 15
-4 15 -5 0 -12 9 -15 20 -5 20 8 29 15 10 2 -6 9 -1 16 11 8 12 9 18 4 15 -6
-3 -12 0 -15 8 -7 18 21 30 38 16 14 -12 41 31 31 49 -4 6 -1 11 7 11 8 0 17
7 21 15 8 23 -8 18 -35 -11 -14 -15 -31 -23 -42 -20 -10 2 -21 -2 -24 -10 -3
-8 -9 -14 -15 -14 -5 0 -7 4 -4 8 2 4 0 14 -5 22 -7 13 -10 13 -18 1 -7 -10
-12 -8 -25 10 -22 32 -22 71 1 62 13 -5 15 -2 10 11 -4 9 -3 15 2 11 5 -3 12
-1 15 4 3 4 20 7 38 5 18 -1 27 0 21 3 -20 8 -15 57 7 71 16 10 18 16 10 38
-13 33 -13 37 3 28 9 -6 9 -4 -1 8 -7 9 -12 20 -11 24 4 21 -2 28 -12 14 -9
-13 -10 -13 -6 0 2 8 14 14 25 13 14 -2 20 2 16 11 -6 16 18 37 45 39 12 1 21
7 21 14 0 7 9 13 20 13 11 0 20 -4 20 -10 0 -6 9 -5 25 2 13 6 23 16 22 21 -1
6 6 13 16 15 10 2 17 -2 17 -12 0 -9 5 -16 10 -16 6 0 10 5 10 10 0 6 7 10 15
10 8 0 15 -5 15 -11 0 -5 5 -7 10 -4 6 3 10 15 10 27 0 18 2 19 17 7 15 -12
16 -12 10 6 -7 20 -7 20 8 1 15 -19 15 -19 15 2 0 27 8 28 27 5z m1138 -13 c1
-13 -5 -20 -16 -20 -16 0 -17 3 -7 25 12 27 21 26 23 -5z m2066 7 c-10 -9 -11
-8 -5 6 3 10 9 15 12 12 3 -3 0 -11 -7 -18z m119 2 c0 -13 -50 -31 -67 -25
-20 8 -16 26 9 35 25 9 58 3 58 -10z m-2240 -20 c0 -5 -4 -9 -10 -9 -5 0 -10
7 -10 16 0 8 5 12 10 9 6 -3 10 -10 10 -16z m-1170 1 c0 -5 -2 -10 -4 -10 -3
0 -8 5 -11 10 -3 6 -1 10 4 10 6 0 11 -4 11 -10z m1304 -1 c25 -7 35 -14 29
-20 -13 -13 -75 2 -81 19 -5 15 2 15 52 1z m1516 -59 c0 -5 -4 -10 -10 -10 -5
0 -10 5 -10 10 0 6 5 10 10 10 6 0 10 -4 10 -10z m-1790 -64 c0 -3 -4 -8 -10
-11 -5 -3 -10 -1 -10 4 0 6 5 11 10 11 6 0 10 -2 10 -4z m509 -33 c2 -2 -3 -3
-11 -3 -9 0 -19 7 -22 16 -6 15 -4 15 11 3 10 -7 20 -15 22 -16z m-1829 -66
c0 -5 -4 -5 -10 -2 -5 3 -10 14 -10 23 0 15 2 15 10 2 5 -8 10 -19 10 -23z
m3105 24 c3 -5 1 -12 -5 -16 -5 -3 -10 1 -10 9 0 18 6 21 15 7z m630 -72 c10
-15 2 -19 -24 -12 -17 4 -19 8 -9 14 18 12 26 11 33 -2z m-710 -87 c-3 -4 -9
-2 -13 4 -4 5 -19 17 -34 27 -16 10 -28 22 -28 28 0 6 18 -4 40 -21 23 -18 38
-35 35 -38z m770 1 c15 -12 16 -14 3 -10 -11 4 -18 0 -20 -11 -3 -11 -6 -8
-10 11 -6 31 -1 33 27 10z m-70 -23 c3 -5 1 -10 -4 -10 -6 0 -11 5 -11 10 0 6
2 10 4 10 3 0 8 -4 11 -10z m-22 -26 c4 -1 10 -2 13 -3 3 0 2 -6 -1 -11 -5 -8
-11 -7 -20 0 -8 7 -19 9 -25 5 -5 -3 -10 -2 -10 3 0 15 12 22 24 14 6 -4 14
-7 19 -8z m-132 -37 c-10 -9 -11 -8 -5 6 3 10 9 15 12 12 3 -3 0 -11 -7 -18z
m59 13 c0 -5 -8 -10 -17 -10 -15 0 -16 2 -3 10 19 12 20 12 20 0z m140 0 c0
-5 -5 -10 -12 -10 -6 0 1 -10 15 -23 19 -16 29 -36 33 -71 5 -34 4 -47 -3 -43
-16 10 -4 -34 15 -56 12 -13 17 -14 23 -5 14 22 23 -1 11 -27 -13 -29 -29 -32
-35 -7 -3 12 -5 13 -6 2 0 -8 3 -22 9 -30 8 -12 13 -12 43 2 29 14 34 14 34 2
0 -8 -6 -13 -12 -10 -13 5 -35 -12 -35 -27 0 -5 6 -4 14 2 11 10 13 4 12 -33
-2 -49 8 -53 17 -6 6 27 27 43 27 20 0 -5 -4 -10 -10 -10 -16 0 -11 -18 11
-38 18 -18 18 -20 3 -26 -9 -4 -14 -9 -11 -13 4 -3 2 -12 -4 -20 -9 -10 -7
-13 10 -13 11 0 21 -4 21 -8 0 -16 -13 -21 -29 -12 -14 7 -17 3 -16 -28 1 -33
3 -37 25 -35 25 3 25 2 -2 -13 -36 -19 -35 -24 4 -20 42 5 58 -2 58 -25 0 -20
-33 -43 -45 -31 -5 4 -5 -1 -2 -11 6 -15 1 -17 -34 -15 -24 1 -43 -3 -48 -11
-7 -10 -12 -10 -29 0 -15 10 -25 10 -32 3 -6 -6 -24 -9 -40 -6 -24 3 -28 8
-28 33 1 17 -4 35 -11 42 -9 9 -11 5 -9 -18 2 -33 -9 -58 -22 -50 -4 3 -11 -2
-14 -11 -9 -22 -37 1 -30 24 3 11 -1 9 -12 -5 -23 -32 -32 -29 -32 12 0 19 4
35 9 35 4 0 6 7 3 15 -11 28 -29 15 -31 -21 -2 -48 -19 -66 -39 -40 -8 11 -14
16 -14 11 0 -5 -5 -4 -12 3 -8 8 -15 9 -25 1 -9 -8 -13 -8 -13 0 0 6 -7 11
-15 11 -8 0 -15 4 -15 9 0 6 -9 9 -19 8 -11 0 -17 -5 -14 -10 10 -17 -6 -35
-26 -30 -12 3 -19 9 -16 13 2 4 -7 12 -21 19 l-26 12 21 18 c22 19 22 19 2 26
-28 9 -43 -2 -36 -26 4 -11 2 -19 -4 -19 -6 0 -11 7 -11 16 0 14 -2 14 -22 0
-12 -9 -35 -16 -51 -16 -24 0 -28 -4 -24 -19 5 -19 4 -19 -26 -1 -22 14 -35
16 -49 9 -10 -5 -18 -7 -18 -4 0 4 -7 -1 -16 -10 -17 -17 -42 -13 -81 11 -22
14 -22 13 -14 -9 9 -22 7 -24 -17 -20 -15 3 -34 7 -42 10 -8 4 -18 5 -22 5 -5
-1 -8 4 -8 11 0 7 -9 13 -20 13 -13 0 -19 -5 -16 -13 7 -16 4 -16 -29 -1 -21
9 -28 9 -34 -1 -7 -10 -12 -10 -30 1 -20 11 -24 11 -38 -7 -12 -15 -17 -17
-20 -6 -4 9 -7 10 -13 2 -9 -16 -40 -3 -33 15 3 8 0 14 -6 14 -6 0 -12 -8 -12
-17 -1 -17 -2 -17 -6 0 -2 9 -9 17 -15 17 -5 0 -8 -7 -4 -15 4 -12 0 -14 -22
-10 -15 2 -28 9 -30 15 -2 5 -9 7 -15 4 -8 -5 -8 -2 1 7 6 7 12 20 12 29 0 9
6 25 14 35 14 19 15 18 46 -15 l32 -35 -22 33 c-19 28 -19 33 -5 38 11 5 13
10 5 19 -14 17 13 28 29 12 7 -7 17 -7 35 1 13 6 33 8 44 5 11 -2 23 1 27 8 6
8 4 10 -5 4 -8 -5 -11 -3 -9 4 3 7 9 12 14 12 6 0 18 8 28 16 9 9 17 13 17 10
0 -18 3 -23 17 -39 9 -10 13 -18 9 -18 -4 0 -1 -6 6 -14 18 -19 30 -9 18 14
-12 22 -13 30 -2 29 26 -4 34 3 30 26 -5 25 4 37 30 41 6 1 12 -4 12 -11 0 -7
10 -15 23 -19 19 -5 20 -8 7 -17 -13 -9 -12 -10 3 -5 10 3 23 6 29 6 6 0 0 9
-13 21 -19 16 -21 22 -9 29 8 5 18 6 24 3 5 -3 6 -1 2 5 -4 7 -1 12 6 12 10 0
9 3 -2 9 -8 6 -18 7 -22 5 -4 -3 -8 -1 -8 5 0 17 22 24 31 10 10 -16 9 -16 14
29 2 17 -1 32 -6 32 -5 0 -9 4 -9 9 0 16 40 -1 41 -18 1 -9 6 -2 11 16 10 30
38 54 38 33 0 -6 -6 -10 -12 -10 -10 0 -9 -3 1 -9 9 -6 10 -11 2 -15 -16 -11
-13 -26 4 -20 8 4 15 2 15 -2 0 -19 -16 -31 -35 -28 -19 3 -35 -11 -35 -32 0
-6 18 -10 39 -10 22 1 37 5 34 9 -3 4 -2 16 2 25 6 15 10 13 31 -13 13 -16 24
-24 24 -16 0 8 -13 27 -30 43 -38 36 -41 73 -5 64 19 -5 23 -3 19 8 -4 11 0
14 18 11 22 -4 22 -3 4 10 -28 21 -16 37 15 21 24 -12 26 -12 22 3 -2 9 5 22
17 29 17 10 20 10 20 -2 0 -8 5 -18 11 -22 8 -4 9 1 4 17 l-7 24 27 -25 c23
-21 26 -22 17 -5 -14 27 13 69 28 45 8 -13 10 -13 10 0 0 10 3 11 11 3 6 -6
17 -9 24 -7 7 3 19 -3 26 -13 18 -24 39 -27 39 -7 0 11 6 15 20 11 16 -4 20 0
20 19 0 13 -5 24 -11 24 -5 0 -7 5 -3 12 6 9 9 9 11 1 3 -8 12 -9 34 -1 17 6
28 15 26 22 -3 6 6 11 19 11 30 0 30 -3 2 -33 l-23 -25 25 14 c14 8 33 20 42
27 9 8 21 11 27 8 5 -4 12 -2 16 4 4 6 11 7 17 4 6 -4 8 -2 4 4 -7 12 4 21 36
27 13 3 24 9 26 15 5 13 42 13 42 0z m-144 -32 c4 -7 4 -10 -1 -6 -4 4 -14 3
-22 -3 -8 -8 -13 -8 -13 -1 0 6 6 13 13 15 6 3 13 6 14 6 1 1 5 -5 9 -11z
m-326 -72 c0 -19 -25 -27 -39 -13 -8 8 -11 8 -11 -2 0 -7 -4 -9 -10 -6 -5 3
-15 -3 -22 -15 -13 -21 -58 -28 -58 -9 0 5 5 7 10 4 6 -3 10 1 10 9 0 10 6 13
16 9 9 -3 19 -1 23 4 5 9 54 30 74 32 4 1 7 -5 7 -13z m558 -54 c-4 -2 -8 -10
-8 -17 0 -14 -25 -27 -34 -18 -9 10 -7 43 3 43 5 0 7 -9 4 -20 -7 -27 6 -25
16 3 5 14 4 25 -3 29 -8 6 -7 8 2 8 6 0 13 8 13 18 1 9 4 4 8 -13 4 -16 3 -31
-1 -33z m32 -29 c0 -5 -5 -15 -10 -23 -8 -12 -10 -11 -10 8 0 12 5 22 10 22 6
0 10 -3 10 -7z m-916 -98 c-4 -8 -8 -15 -10 -15 -2 0 -4 7 -4 15 0 8 4 15 10
15 5 0 7 -7 4 -15z m-111 -125 c3 -11 1 -20 -4 -20 -5 0 -9 9 -9 20 0 11 2 20
4 20 2 0 6 -9 9 -20z m-243 -70 c0 -5 -4 -10 -10 -10 -5 0 -10 5 -10 10 0 6 5
10 10 10 6 0 10 -4 10 -10z m-661 -49 c-13 -11 -25 -18 -27 -17 -7 8 12 35 26
39 27 5 27 -1 1 -22z m271 8 c0 8 3 11 6 8 4 -4 3 -12 -3 -19 -5 -7 -10 -24
-11 -38 -1 -14 -6 -26 -12 -28 -5 -2 -10 -10 -10 -18 0 -8 -4 -14 -10 -14 -5
0 -7 7 -4 15 5 11 2 13 -10 9 -10 -4 -18 0 -22 10 -5 13 -9 14 -20 5 -8 -6
-20 -9 -28 -6 -17 7 -48 -36 -44 -60 2 -11 -5 -19 -17 -21 -25 -4 -65 -23 -65
-32 0 -3 8 -6 19 -6 10 0 17 5 14 12 -3 7 5 10 21 7 14 -3 23 -9 20 -14 -7
-12 11 -11 57 2 32 10 40 9 54 -5 9 -9 13 -21 9 -27 -4 -8 -3 -9 4 -5 7 4 12
2 12 -4 0 -7 12 -10 28 -9 15 2 32 0 39 -4 6 -4 14 -3 18 3 4 7 12 7 25 0 11
-6 21 -6 24 -1 3 5 17 9 31 9 20 0 25 -6 25 -24 0 -13 5 -24 11 -24 5 0 7 4 4
10 -3 6 1 7 9 4 9 -3 14 -10 11 -14 -3 -5 4 -12 15 -15 21 -7 21 -7 -1 -26
-18 -15 -19 -19 -6 -19 17 0 23 -21 11 -33 -9 -8 -35 4 -29 13 3 5 1 11 -4 15
-6 3 -7 13 -4 21 5 13 1 15 -18 9 -13 -4 -29 -11 -35 -16 -6 -5 -20 -7 -30 -3
-18 5 -18 5 0 -10 19 -16 19 -16 -3 -16 -14 0 -20 -4 -16 -12 4 -7 -1 -4 -9 6
-13 16 -13 22 -3 28 8 5 5 8 -10 8 -17 0 -20 -4 -16 -21 6 -20 3 -21 -23 -14
-16 4 -38 9 -49 10 -12 1 -19 9 -19 19 1 9 -4 16 -12 16 -8 0 -14 5 -14 11 0
5 -5 7 -11 3 -7 -4 -10 -1 -7 7 3 8 16 15 29 16 13 0 30 1 37 2 20 2 14 28 -8
34 -11 3 -20 1 -20 -5 0 -5 -4 -6 -10 -3 -5 3 -10 0 -11 -7 0 -7 -5 -2 -11 12
-11 25 -12 25 -15 3 -3 -12 -13 -25 -23 -28 -10 -3 -22 -15 -25 -25 -4 -11
-12 -17 -21 -13 -10 4 -12 0 -8 -11 8 -20 -9 -21 -26 -1 -11 14 -14 13 -25 -1
-8 -11 -20 -15 -34 -11 -11 3 -21 1 -21 -5 0 -5 -4 -7 -9 -4 -5 3 -12 -1 -15
-10 -6 -15 -8 -15 -25 0 -18 17 -48 13 -64 -8 -6 -7 -10 -7 -13 -1 -2 6 -9 17
-14 25 -9 13 -12 13 -24 -2 -7 -10 -16 -15 -20 -11 -3 3 2 16 11 27 17 20 17
20 0 6 -15 -11 -20 -11 -27 0 -6 10 -17 11 -55 1 -42 -11 -51 -10 -82 9 -19
11 -31 16 -28 10 10 -16 -14 -12 -43 8 -15 9 -36 22 -47 28 -27 15 -30 45 -6
73 14 17 26 21 42 16 13 -5 19 -3 15 3 -3 5 4 10 17 10 12 1 35 2 52 3 16 1
31 -4 33 -10 2 -6 11 -11 20 -11 14 1 14 3 -4 18 -17 14 -18 20 -8 30 7 7 16
12 20 12 4 0 13 8 20 18 9 11 13 13 14 4 0 -10 9 -12 31 -7 22 5 29 4 25 -4
-4 -6 0 -11 10 -11 15 0 15 3 -5 24 l-22 23 33 -1 c18 0 33 1 33 4 0 3 7 13
15 22 14 15 16 15 27 1 9 -11 10 -20 2 -29 -15 -19 17 -34 76 -35 10 0 25 -5
33 -11 11 -10 13 -8 10 8 -1 10 -10 24 -18 31 -13 10 -11 16 13 40 24 24 27
25 27 8 0 -18 0 -18 15 1 22 29 18 4 -5 -31 -27 -41 -27 -59 1 -44 12 6 30 9
40 6 15 -4 23 3 34 29 8 19 22 37 32 41 10 4 23 14 30 22 6 9 15 13 19 8 4 -4
2 -7 -4 -7 -7 0 -12 -10 -12 -21 0 -17 3 -19 13 -10 8 6 17 8 20 4 4 -3 7 0 7
9 0 20 42 39 52 24 5 -7 8 -6 8 3z m332 -16 c-3 -16 -11 -32 -18 -36 -8 -4
-14 -14 -14 -22 0 -8 -9 -13 -19 -12 -19 1 -21 14 -12 80 1 4 8 7 16 7 9 0 12
-6 8 -17 -5 -12 -1 -11 15 5 28 28 30 28 24 -5z m-1652 13 c0 -3 -4 -8 -10
-11 -5 -3 -10 -1 -10 4 0 6 5 11 10 11 6 0 10 -2 10 -4z m1360 -5 c0 -16 -12
-41 -20 -41 -4 0 -5 11 -2 25 4 23 22 36 22 16z m44 -5 c-5 -13 0 -13 32 -4
26 7 39 7 42 0 2 -6 13 -5 30 3 33 18 35 15 19 -18 -13 -28 -42 -36 -50 -14
-3 6 -6 2 -6 -10 -1 -24 -15 -30 -27 -12 -5 8 -9 8 -14 -1 -10 -16 -33 -2 -26
16 3 9 -2 14 -14 14 -23 0 -25 5 -7 25 16 19 28 19 21 1z m-294 -51 c-7 -8
-17 -15 -22 -15 -5 0 -2 7 6 16 9 8 16 21 17 27 0 8 2 8 6 -1 3 -7 -1 -19 -7
-27z m-235 15 c-3 -5 -11 -10 -16 -10 -6 0 -7 5 -4 10 3 6 11 10 16 10 6 0 7
-4 4 -10z m109 -11 c-3 -5 -10 -7 -15 -3 -5 3 -7 10 -3 15 3 5 10 7 15 3 5 -3
7 -10 3 -15z m363 -11 c2 6 9 12 14 12 5 0 3 -11 -3 -25 -11 -24 -28 -34 -28
-16 0 5 -3 18 -6 28 -5 15 -4 16 6 3 9 -11 13 -12 17 -2z m-347 -18 c0 -5 -4
-10 -10 -10 -5 0 -10 5 -10 10 0 6 5 10 10 10 6 0 10 -4 10 -10z m1540 -20 c0
-5 -4 -10 -10 -10 -5 0 -10 5 -10 10 0 6 5 10 10 10 6 0 10 -4 10 -10z m-540
-10 c0 -5 -4 -10 -10 -10 -5 0 -10 5 -10 10 0 6 5 10 10 10 6 0 10 -4 10 -10z
m820 -36 c0 -8 -4 -12 -10 -9 -5 3 -10 10 -10 16 0 5 5 9 10 9 6 0 10 -7 10
-16z m-1210 -114 c0 -5 -4 -10 -10 -10 -5 0 -10 5 -10 10 0 6 5 10 10 10 6 0
10 -4 10 -10z m154 -3 c11 -8 17 -19 15 -26 -3 -8 -13 -3 -27 13 -24 28 -17
34 12 13z m-174 -12 c9 -11 16 -13 24 -5 15 15 30 12 17 -3 -6 -8 -8 -17 -5
-20 4 -3 4 -14 0 -23 -5 -13 -9 -14 -21 -4 -12 10 -15 9 -15 -5 0 -10 -3 -15
-7 -12 -3 4 -13 1 -21 -6 -13 -10 -15 -9 -10 10 4 13 2 25 -2 28 -5 3 -7 13
-5 23 2 9 4 20 4 25 2 13 28 8 41 -8z m350 2 c0 -8 10 -13 21 -13 12 1 24 -6
27 -14 3 -12 2 -12 -8 -3 -7 6 -27 9 -45 6 -33 -5 -36 0 -26 35 3 9 31 -1 31
-11z m-98 -64 c-6 -18 -29 -16 -40 4 -7 12 -5 24 6 41 l15 24 12 -29 c7 -15
10 -34 7 -40z m213 57 c3 -5 1 -10 -4 -10 -6 0 -11 5 -11 10 0 6 2 10 4 10 3
0 8 -4 11 -10z m-322 -15 c4 -8 2 -17 -3 -20 -14 -9 -80 5 -80 17 0 5 5 6 10
3 6 -3 10 -1 10 4 0 17 57 13 63 -4z m187 -35 c0 -14 -14 -12 -29 3 -10 10
-11 9 -6 -5 4 -10 3 -18 -3 -18 -14 0 -22 38 -8 43 14 5 46 -11 46 -23z m-250
-26 c0 -14 -4 -22 -10 -19 -5 3 -10 17 -10 31 0 14 4 22 10 19 6 -3 10 -17 10
-31z m231 -17 c-1 -12 -15 -9 -19 4 -3 6 1 10 8 8 6 -3 11 -8 11 -12z m-1661
-197 c0 -5 -2 -10 -4 -10 -3 0 -8 5 -11 10 -3 6 -1 10 4 10 6 0 11 -4 11 -10z
m180 -144 c0 -20 -26 -15 -27 5 -1 12 3 16 13 12 8 -3 14 -11 14 -17z m-218
-10 c10 -16 1 -21 -15 -8 -8 7 -16 9 -19 6 -3 -2 -8 2 -12 11 -5 13 -1 15 17
9 12 -4 25 -12 29 -18z m1264 0 c8 -8 14 -21 14 -30 0 -8 8 -19 17 -25 10 -5
15 -13 11 -17 -4 -4 0 -13 10 -21 16 -13 16 -14 -3 -12 -33 2 -41 -1 -26 -10
12 -8 12 -12 -2 -25 -22 -23 -26 -20 -23 19 3 26 -1 35 -13 36 -13 1 -13 2 2
6 9 2 17 9 17 15 0 5 -6 8 -14 5 -18 -7 -30 34 -13 45 8 5 6 8 -6 8 -10 0 -15
5 -12 10 9 14 24 12 41 -4z m70 -56 c9 -46 -5 -32 -16 15 -5 22 -5 34 1 28 5
-5 12 -24 15 -43z m-1306 -50 c0 -5 -5 -10 -11 -10 -5 0 -7 5 -4 10 3 6 8 10
11 10 2 0 4 -4 4 -10z m1193 -13 c3 -8 1 -20 -4 -28 -6 -10 -9 -7 -9 14 0 29
5 35 13 14z m210 -55 c-2 -16 3 -25 19 -32 22 -9 22 -9 2 -9 -35 -1 -43 19
-34 94 2 17 3 16 9 -5 5 -14 6 -35 4 -48z m-1363 48 c0 -5 -2 -10 -4 -10 -3 0
-8 5 -11 10 -3 6 -1 10 4 10 6 0 11 -4 11 -10z m-20 -34 c0 -3 -4 -8 -10 -11
-5 -3 -10 -1 -10 4 0 6 5 11 10 11 6 0 10 -2 10 -4z"/>
<path d="M3807 4107 c-30 -26 -34 -37 -12 -37 8 0 15 5 15 11 0 5 6 7 13 3 6
-4 9 -4 5 1 -4 4 -3 14 4 22 19 24 2 24 -25 0z"/>
<path d="M3850 4090 c-8 -16 -8 -20 3 -20 8 0 17 9 20 20 3 11 1 20 -4 20 -4
0 -13 -9 -19 -20z"/>
<path d="M2950 2457 c0 -10 7 -25 15 -33 19 -19 19 -14 0 22 -11 21 -15 24
-15 11z"/>
<path d="M2401 2304 c0 -11 3 -14 6 -6 3 7 2 16 -1 19 -3 4 -6 -2 -5 -13z"/>
<path d="M2411 2264 c0 -11 3 -14 6 -6 3 7 2 16 -1 19 -3 4 -6 -2 -5 -13z"/>
<path d="M2546 1917 c3 -10 9 -15 12 -12 3 3 0 11 -7 18 -10 9 -11 8 -5 -6z"/>
<path d="M2715 1859 c-11 -16 -1 -19 13 -3 7 8 8 14 3 14 -5 0 -13 -5 -16 -11z"/>
<path d="M3605 1730 c3 -5 8 -10 11 -10 2 0 4 5 4 10 0 6 -5 10 -11 10 -5 0
-7 -4 -4 -10z"/>
<path d="M3625 1690 c-3 -5 -1 -10 4 -10 6 0 11 5 11 10 0 6 -2 10 -4 10 -3 0
-8 -4 -11 -10z"/>
<path d="M4278 1676 c-3 -16 -1 -23 7 -19 7 2 11 13 8 24 -7 25 -10 24 -15 -5z"/>
<path d="M3850 1654 c0 -10 31 -36 37 -31 10 10 -6 37 -22 37 -8 0 -15 -3 -15
-6z"/>
<path d="M4090 1619 c0 -5 5 -7 10 -4 6 3 10 8 10 11 0 2 -4 4 -10 4 -5 0 -10
-5 -10 -11z"/>
<path d="M3975 1579 c-4 -6 -5 -12 -2 -15 2 -3 7 2 10 11 7 17 1 20 -8 4z"/>
<path d="M4180 1570 c0 -5 5 -10 11 -10 5 0 7 5 4 10 -3 6 -8 10 -11 10 -2 0
-4 -4 -4 -10z"/>
<path d="M4530 1459 c0 -5 5 -7 10 -4 6 3 10 8 10 11 0 2 -4 4 -10 4 -5 0 -10
-5 -10 -11z"/>
<path d="M4300 1390 c0 -5 4 -10 9 -10 6 0 13 5 16 10 3 6 -1 10 -9 10 -9 0
-16 -4 -16 -10z"/>
<path d="M2610 1290 c0 -5 5 -10 10 -10 6 0 10 5 10 10 0 6 -4 10 -10 10 -5 0
-10 -4 -10 -10z"/>
<path d="M5715 1460 c-3 -5 -1 -10 4 -10 6 0 11 5 11 10 0 6 -2 10 -4 10 -3 0
-8 -4 -11 -10z"/>
<path d="M5769 1363 c-13 -16 -12 -17 4 -4 9 7 17 15 17 17 0 8 -8 3 -21 -13z"/>
<path d="M5570 1350 c0 -5 5 -10 11 -10 5 0 7 5 4 10 -3 6 -8 10 -11 10 -2 0
-4 -4 -4 -10z"/>
<path d="M5539 1331 c-7 -37 7 -61 36 -61 13 0 14 2 3 14 -7 8 -16 12 -20 9
-5 -2 -8 1 -8 6 0 6 6 11 14 11 26 0 26 18 1 22 -14 3 -26 2 -26 -1z"/>
<path d="M5490 1309 c0 -5 5 -7 10 -4 6 3 10 8 10 11 0 2 -4 4 -10 4 -5 0 -10
-5 -10 -11z"/>
<path d="M5615 1310 c3 -5 8 -10 11 -10 2 0 4 5 4 10 0 6 -5 10 -11 10 -5 0
-7 -4 -4 -10z"/>
<path d="M5310 1300 c0 -5 5 -10 10 -10 6 0 10 5 10 10 0 6 -4 10 -10 10 -5 0
-10 -4 -10 -10z"/>
<path d="M5496 1245 c4 -8 11 -15 16 -15 6 0 5 6 -2 15 -7 8 -14 15 -16 15 -2
0 -1 -7 2 -15z"/>
<path d="M5604 1195 c-10 -8 -14 -14 -9 -15 15 0 40 18 34 24 -3 3 -14 -1 -25
-9z"/>
<path d="M5180 1155 c0 -8 2 -15 4 -15 2 0 6 7 10 15 3 8 1 15 -4 15 -6 0 -10
-7 -10 -15z"/>
<path d="M5503 1163 c-18 -7 -16 -40 3 -47 8 -3 12 -2 9 3 -3 5 -1 12 5 16 12
7 14 35 3 34 -5 0 -14 -3 -20 -6z"/>
<path d="M5818 1163 c6 -2 18 -2 25 0 6 3 1 5 -13 5 -14 0 -19 -2 -12 -5z"/>
<path d="M5080 1121 c0 -5 9 -11 20 -14 24 -6 27 8 4 17 -21 8 -24 8 -24 -3z"/>
<path d="M5513 1075 c0 -8 4 -12 9 -9 4 3 8 9 8 15 0 5 -4 9 -8 9 -5 0 -9 -7
-9 -15z"/>
<path d="M5795 1060 c-8 -12 18 -40 37 -40 10 0 11 2 0 8 -7 5 -10 16 -6 25 7
19 -20 25 -31 7z"/>
<path d="M5850 1005 c0 -8 4 -15 8 -15 5 0 9 7 9 15 0 8 -4 15 -9 15 -4 0 -8
-7 -8 -15z"/>
<path d="M5770 1001 c0 -6 4 -13 10 -16 6 -3 7 1 4 9 -7 18 -14 21 -14 7z"/>
<path d="M5305 979 c-4 -6 -4 -13 -1 -16 3 -4 6 -1 6 6 0 7 5 9 12 5 7 -4 8
-3 4 4 -9 15 -13 15 -21 1z"/>
<path d="M5660 966 c0 -8 4 -17 9 -20 5 -4 7 3 4 14 -6 23 -13 26 -13 6z"/>
<path d="M5767 953 c-4 -3 -7 -11 -7 -17 0 -6 5 -5 12 2 6 6 9 14 7 17 -3 3
-9 2 -12 -2z"/>
<path d="M5170 940 c0 -5 5 -10 11 -10 5 0 7 5 4 10 -3 6 -8 10 -11 10 -2 0
-4 -4 -4 -10z"/>
<path d="M3848 843 c6 -2 18 -2 25 0 6 3 1 5 -13 5 -14 0 -19 -2 -12 -5z"/>
<path d="M3920 785 c0 -20 17 -28 23 -11 3 8 -1 17 -9 20 -8 3 -14 -1 -14 -9z"/>
<path d="M3745 770 c3 -5 10 -10 16 -10 5 0 9 5 9 10 0 6 -7 10 -16 10 -8 0
-12 -4 -9 -10z"/>
<path d="M3920 720 c0 -13 20 -13 40 0 12 8 9 10 -12 10 -16 0 -28 -4 -28 -10z"/>
<path d="M4230 705 c13 -7 32 -10 42 -7 27 7 15 14 -28 17 -34 2 -35 1 -14
-10z"/>
<path d="M3843 679 c-13 -5 -23 -16 -23 -25 0 -15 3 -14 24 5 18 17 25 19 29
9 4 -9 6 -9 6 -1 1 18 -11 22 -36 12z"/>
<path d="M3202 336 c7 -8 15 -12 17 -11 5 6 -10 25 -20 25 -5 0 -4 -6 3 -14z"/>
<path d="M3439 313 c-12 -16 -12 -17 2 -6 9 7 19 10 22 6 4 -3 7 -1 7 5 0 17
-16 15 -31 -5z"/>
<path d="M3400 310 c0 -5 5 -10 10 -10 6 0 10 5 10 10 0 6 -4 10 -10 10 -5 0
-10 -4 -10 -10z"/>
<path d="M3152 278 c-14 -14 -16 -28 -3 -28 5 0 11 9 14 20 6 23 5 24 -11 8z"/>
<path d="M3420 251 c0 -14 5 -19 15 -14 17 6 15 25 -3 31 -7 2 -12 -5 -12 -17z"/>
<path d="M3865 228 c-7 -21 -11 -228 -4 -228 11 0 15 30 18 138 3 92 -2 123
-14 90z"/>
<path d="M3220 200 c0 -5 5 -10 11 -10 5 0 7 5 4 10 -3 6 -8 10 -11 10 -2 0
-4 -4 -4 -10z"/>
<path d="M3410 175 c0 -8 2 -15 4 -15 2 0 6 7 10 15 3 8 1 15 -4 15 -6 0 -10
-7 -10 -15z"/>
<path d="M4360 46 c0 -8 -3 -21 -6 -30 -3 -9 -2 -16 3 -16 5 0 10 13 11 30 1
17 0 30 -3 30 -3 0 -5 -6 -5 -14z"/>
<path d="M4161 28 c-1 -22 4 -28 20 -28 11 0 19 5 17 11 -2 6 -8 10 -13 9 -5
-1 -12 7 -16 17 -6 14 -8 12 -8 -9z"/>
<path d="M4240 20 c0 -11 5 -20 10 -20 6 0 10 9 10 20 0 11 -4 20 -10 20 -5 0
-10 -9 -10 -20z"/>
<path d="M4460 10 c0 -5 5 -10 10 -10 6 0 10 5 10 10 0 6 -4 10 -10 10 -5 0
-10 -4 -10 -10z"/>
</g>
</svg>
